<svg height="512pt" viewBox="0 -84 512 512" width="512pt" xmlns="http://www.w3.org/2000/svg"><path d="m170.863281 183.46875c0 46.945312 38.191407 85.136719 85.136719 85.136719s85.136719-38.191407 85.136719-85.136719-38.191407-85.136719-85.136719-85.136719-85.136719 38.191407-85.136719 85.136719zm155.273438 0c0 38.675781-31.460938 70.136719-70.136719 70.136719s-70.136719-31.460938-70.136719-70.136719c0-38.671875 31.460938-70.136719 70.136719-70.136719s70.136719 31.464844 70.136719 70.136719zm0 0"/><path d="m504.5 2.621094c-4.144531 0-7.5 3.359375-7.5 7.5v47.832031c0 10.976563-8.929688 19.90625-19.90625 19.90625h-5.15625v-67.738281c0-4.140625-3.359375-7.5-7.5-7.5-4.144531 0-7.5 3.359375-7.5 7.5v67.738281h-5.15625c-10.976562 0-19.90625-8.929687-19.90625-19.90625v-47.832031c0-4.140625-3.359375-7.5-7.5-7.5-4.144531 0-7.5 3.359375-7.5 7.5v47.832031c0 16.589844 11.628906 30.511719 27.164062 34.042969l-8.066406 167.210937c-.378906 7.863281 2.402344 15.332031 7.835938 21.03125 18.175781 19.078125 50.359375 5.152344 49.09375-21.03125l-8.066406-167.210937c15.53125-3.53125 27.164062-17.453125 27.164062-34.042969v-47.832031c0-4.140625-3.355469-7.5-7.5-7.5zm-40.0625 271.457031c-7.691406 0-13.855469-6.410156-13.480469-14.148437l8.058594-167.066407h10.84375l8.0625 167.066407c.367187 7.695312-5.757813 14.148437-13.484375 14.148437zm0 0"/><path d="m74.367188 105.382812c14.191406-8.953124 22.664062-24.296874 22.664062-41.046874 0-25.90625-20.375-64.335938-48.515625-64.335938-28.144531 0-48.515625 38.429688-48.515625 64.335938 0 16.75 8.472656 32.097656 22.664062 41.046874 2.878907 1.8125 4.570313 4.945313 4.414063 8.171876l-2.878906 59.6875c-.199219 4.140624 2.992187 7.652343 7.128906 7.855468 4.121094.203125 7.652344-2.996094 7.855469-7.132812l2.878906-59.6875c.414062-8.617188-3.953125-16.886719-11.398438-21.582032-9.808593-6.1875-15.664062-16.789062-15.664062-28.359374 0-20.632813 16.890625-49.335938 33.515625-49.335938s33.515625 28.703125 33.515625 49.335938c0 11.570312-5.855469 22.171874-15.664062 28.359374-7.445313 4.691407-11.8125 12.960938-11.398438 21.582032l7.027344 145.652344c.179687 3.722656-1.136719 7.261718-3.710938 9.960937-8.664062 9.089844-23.847656 2.386719-23.253906-9.960937l2.734375-56.636719c.199219-4.140625-2.992187-7.652344-7.128906-7.855469-4.136719-.207031-7.65625 2.992188-7.855469 7.132812l-2.730469 56.632813c-.78125 16.210937 12.105469 29.871094 28.464844 29.871094 16.226563 0 29.25-13.53125 28.460937-29.871094l-7.023437-145.648437c-.15625-3.226563 1.535156-6.355469 4.414063-8.171876zm0 0"/><path d="m328.164062 40.390625c-3.695312-1.867187-8.210937-.386719-10.078124 3.3125-1.867188 3.695313-.386719 8.207031 3.3125 10.078125 49.238281 24.878906 79.824218 74.570312 79.824218 129.6875 0 80.074219-65.148437 145.222656-145.222656 145.222656s-145.222656-65.148437-145.222656-145.222656c0-94.925781 90.296875-164.972656 182.742187-140.316406 4 1.066406 8.113281-1.3125 9.179688-5.3125 1.066406-4.003906-1.3125-8.113282-5.3125-9.183594-102.007813-27.195312-201.609375 50.097656-201.609375 154.8125 0 88.347656 71.875 160.222656 160.222656 160.222656 126.011719 0 202.277344-139.433594 135.773438-245.320312-15.550782-24.761719-37.550782-44.8125-63.609376-57.980469zm0 0"/></svg>